<svg width="18" height="18" fill="none" xmlns="http://www.w3.org/2000/svg"><g clip-path="url(#clip0_110_6)"><path d="M9 18A8.928 8.928 0 109 .144 8.928 8.928 0 009 18z" fill="#fff"/><path d="M18 9a9 9 0 10-10.406 8.89v-6.288H5.309V9h2.285V7.017c0-2.255 1.343-3.501 3.4-3.501.984 0 2.014.175 2.014.175v2.215h-1.135c-1.118 0-1.467.694-1.467 1.406V9h2.496l-.399 2.602h-2.097v6.289A9.002 9.002 0 0018 9z" fill="#1877F2"/></g><defs><clipPath id="clip0_110_6"><path fill="#fff" d="M0 0h18v18H0z"/></clipPath></defs></svg>