<svg width="18" height="18" fill="none" xmlns="http://www.w3.org/2000/svg"><path d="M17.64 9.12c0-.64-.057-1.256-.164-1.848H9v3.5h4.844a4.169 4.169 0 01-1.808 2.72v2.276h2.92c1.702-1.578 2.684-3.895 2.684-6.647z" fill="#4285F4"/><path d="M8.999 18c2.438 0 4.483-.8 5.977-2.173l-2.931-2.264c-.805.54-1.831.866-3.046.866-2.348 0-4.344-1.577-5.058-3.701H.936v2.32A9.028 9.028 0 008.999 18z" fill="#34A853"/><path d="M3.96 10.71A5.389 5.389 0 013.674 9c0-.597.106-1.17.286-1.71V4.969H.965A8.882 8.882 0 000 9c0 1.456.352 2.822.965 4.032l2.332-1.816.663-.507z" fill="#FBBC05"/><path d="M9.002 3.575c1.331 0 2.514.457 3.459 1.338l2.587-2.57C13.479.89 11.442 0 9.002 0A9.026 9.026 0 00.936 4.954l3.006 2.318c.715-2.122 2.711-3.697 5.06-3.697z" fill="#EA4335"/></svg>