<svg width="600" height="150" fill="none" xmlns="http://www.w3.org/2000/svg" viewBox="0 0 600 150">
    <g clip-path="url(#clip0)" fill="#000">
        <path opacity=".05" fill-rule="evenodd" clip-rule="evenodd" d="M78.025 81.656l-7.217 1.8s-3.132-.73-6.78-.477l-.286-1.148c-.243-.975.337-1.967 1.289-2.204l10.027-2.5c.951-.237 1.929.366 2.172 1.34l.795 3.189zm-9.657 37.114c-8.267 2.062-16.68-3.131-18.79-11.598-2.112-8.467 2.879-17.002 11.145-19.063 8.268-2.062 16.68 3.132 18.792 11.598 2.11 8.468-2.88 17.002-11.147 19.063zm13.82-38.152l-1.13.282-1.163-4.663c-.437-1.754-2.197-2.84-3.91-2.413L62.66 77.146c-1.713.427-2.757 2.212-2.32 3.967l.584 2.341a19.341 19.341 0 00-9.684 4.88l-11.236 2.802c-2.284.57-3.676 2.95-3.092 5.289l6.438 25.822c.583 2.339 2.93 3.787 5.213 3.218l10.724-2.674a19.343 19.343 0 0010.301.256 19.344 19.344 0 008.976-5.062l12.182-3.037c2.285-.57 3.676-2.95 3.093-5.29l-6.438-25.821c-.583-2.34-2.93-3.788-5.214-3.219zM141.392 66.664c.39.836.018 1.843-.827 2.237L118.932 78.99a1.691 1.691 0 01-2.245-.805L100.032 42.47a1.692 1.692 0 01.827-2.238l21.633-10.088a1.692 1.692 0 012.246.805l16.654 35.716zm-8.68 13.96c-1.367.637-2.987.057-3.618-1.297-.631-1.353-.035-2.967 1.332-3.604 1.367-.638 2.987-.057 3.618 1.296.631 1.353.034 2.967-1.332 3.605zm-10.345-53.406L98.699 38.255c-1.69.788-2.434 2.801-1.654 4.475l20.228 43.379c.78 1.673 2.801 2.397 4.491 1.61l23.668-11.037c1.69-.788 2.434-2.802 1.654-4.475l-20.228-43.38c-.781-1.672-2.801-2.397-4.491-1.609zM186.429 87.893l-6.382-22.256 43.359-12.433 6.382 22.256c.45 1.571-.482 3.23-2.072 3.686L190.139 89.92c-1.59.456-3.26-.457-3.71-2.028zm37.869-25.414l-11.683 3.35 2.355 8.212 11.683-3.35.341 1.19-39.866 11.432-.341-1.19 11.683-3.35-2.355-8.212-11.683 3.35-.341-1.19 39.866-11.432.341 1.19zm-27.004 7.6l14.3-4.1 2.356 8.219-14.299 4.1-2.357-8.219zM215.869 44.077l.696-.276-.696.276zm0 0l4.524 5.585-4.097 1.628-4.525-5.585 4.098-1.628zm-34.567 13.75l3.982-1.599 4.47 5.672-3.981 1.6-4.471-5.672zm8.452 4.073l1.973-.793-1.973.793zm-9.794 3.762l-1.383-3.463a2.947 2.947 0 01-.04-2.059l3.749 4.6-2.326.922zm20.697-15.469l7.67-3.042 4.463 5.483-4.05 1.607-4.464-5.483-3.619 1.435zm.411 7.09l-4.463-5.482 4.052-1.608 4.464 5.483-4.053 1.608zm-1.81.718l1.81-.717-1.81.717zm0 0l-5.862 2.326-4.463-5.483 4.053-1.608 4.463 5.483 1.809-.718z"/>
        <path opacity=".07" fill-rule="evenodd" clip-rule="evenodd" d="M181.747 2.36c-1.101 2.594-4.111 3.797-6.724 2.688-2.612-1.109-3.838-4.11-2.737-6.704 1.101-2.593 4.111-3.797 6.724-2.688 2.613 1.11 3.838 4.11 2.737 6.704M178.516 39.107L147.688 26.02c-1.123-.477-1.657-1.773-1.187-2.88l1.343-3.163c.47-1.107 1.773-1.623 2.896-1.147l30.828 13.086c1.123.477 1.657 1.773 1.187 2.88l-1.342 3.164c-.47 1.107-1.774 1.623-2.897 1.146"/>
        <path opacity=".05" fill-rule="evenodd" clip-rule="evenodd" d="M160.887 13.287l5.996-2.36 2.552 6.158 6.1-2.4 2.297 5.541 4.669-1.838c-.432-5.914-2.304-11.788-7.584-14.03-5.348-2.27-11.061.81-15.716 4.862l1.686 4.067z"/>
        <path opacity=".05" fill-rule="evenodd" clip-rule="evenodd" d="M182.482 22.104l-6.169 2.52-2.358-5.898-5.983 2.443-2.441-6.105-6.293 2.57-2.338-5.85c-2.649 2.72-4.787 5.505-6.056 7.272.019.008.038.013.056.02l30.518 12.955c.411-2.191.982-5.897 1.064-9.927"/>
        <path opacity=".07" fill-rule="evenodd" clip-rule="evenodd" d="M419.015 43.865l-5.014-1.066c-.564-.12-.925-.693-.801-1.274.123-.581.686-.959 1.25-.839l5.014 1.066c.564.12.925.693.801 1.274-.123.582-.686.959-1.25.84zm-.765 3.6l-5.014-1.066c-.565-.12-.925-.694-.802-1.275.124-.58.687-.958 1.251-.838l5.014 1.066c.564.12.925.693.801 1.274-.123.581-.686.959-1.25.839zm.485 2.762c-.124.581-.686.958-1.251.839L412.47 50c-.564-.12-.924-.694-.801-1.275.124-.581.686-.958 1.25-.839l5.015 1.066c.564.12.924.694.801 1.275zm-5.455 8.288c-1.51-.32-2.467-1.843-2.136-3.398.331-1.557 1.824-2.558 3.334-2.237 1.51.322 2.467 1.843 2.136 3.4-.331 1.555-1.823 2.556-3.334 2.235zm-4.866-2.547c-.192.904-1.067 1.49-1.945 1.304l-29.451-6.26c-.878-.186-1.438-1.078-1.246-1.982l4.807-22.618c.192-.904 1.067-1.49 1.945-1.304l29.451 6.26c.878.186 1.439 1.078 1.247 1.982l-4.808 22.618zm10.323-23.124c1.51.321 2.467 1.843 2.136 3.399-.331 1.556-1.823 2.557-3.334 2.236-1.51-.32-2.467-1.843-2.136-3.399.331-1.556 1.824-2.557 3.334-2.236zm3.39-2.24l-17.725-3.767 8.032-5.387a1.148 1.148 0 00.33-1.55 1.07 1.07 0 00-1.505-.32l-9.856 6.611-6.375-10.143c-.323-.514-1-.657-1.504-.32a1.147 1.147 0 00-.33 1.55l5.206 8.283-16.789-3.569c-1.505-.32-3.005.687-3.334 2.236l-5.49 25.828c-.329 1.55.632 3.079 2.136 3.398l40.517 8.612c1.504.32 3.004-.686 3.334-2.236l5.489-25.827c.33-1.55-.632-3.079-2.136-3.399z"/>
        <path opacity=".05" fill-rule="evenodd" clip-rule="evenodd" d="M480.929 94.2c.611-5.232.657-9.197.72-14.484.018-1.575-.1-2.805-.342-3.787a2036.321 2036.321 0 00-7.758 7.14c-2.391 2.225-4.15 1.316-5.531.701l-4.765-2.121-1.034 2.323a.698.698 0 01-.92.35l-1.594-.71a.698.698 0 01-.355-.917l1.034-2.324-4.69-2.088c-1.381-.615-3.234-1.314-3.18-4.58.041-2.508.097-8.587.121-11.275 1.705-.66 3.068-.338 4.62.353l-.075-.033c-2.549-1.135-4.584-1.282-8.471 2.302-3.887 3.584-6.803 6.272-10.282 10.227-2.321 2.637-3.192 6.74.792 8.514l34.852 15.517c3.984 1.774 6.45-1.619 6.858-5.108"/>
        <path opacity=".02" fill-rule="evenodd" clip-rule="evenodd" d="M477.421 72.098l-10.053-4.476-.205-.091-10.053-4.476c-1.537-.685-2.883-1.011-4.556-.392.006 2.595.017 8.466.004 10.887-.017 3.154 1.816 3.849 3.184 4.458l4.645 2.068.768-1.725a.68.68 0 01.902-.328l1.578.703a.68.68 0 01.36.89l-.768 1.724 4.719 2.101c1.368.61 3.111 1.507 5.443-.616a1897 1897 0 017.62-6.858c-.595-2.184-1.836-3.09-3.588-3.87"/>
        <path opacity=".05" fill-rule="evenodd" clip-rule="evenodd" d="M471.739 56.331c6.645 2.959 5.698 12.066 4.935 16.013l.317.141c.872.388 1.617.81 2.218 1.409.344-1.494.871-4.33.8-7.466-.142-6.26-2.61-10.633-7.135-12.647-4.518-2.012-9.478-.918-14.341 3.164-2.505 2.102-4.355 4.463-5.242 5.694 1.036-.082 1.99.193 3.022.641 2.586-3.279 8.841-9.88 15.426-6.949z"/>
        <path opacity=".04" d="M532.177 104.795c.524-2.717 3.48-4.217 7.184-3.989 6.261.384 10.45-5.493 6.431-10.49l-2.985 2.357c1.74 2.163.033 4.558-3.211 4.358-5.402-.331-10.215 2.11-11.169 7.053l3.75.711z"/>
        <path opacity=".04" fill-rule="evenodd" clip-rule="evenodd" d="M512.34 136.35l.198.105 17.465-32.708-.198-.106c-5.789-3.091-13.054-.883-16.145 4.905l-6.225 11.659c-3.091 5.789-.884 13.054 4.905 16.145"/>
        <path opacity=".07" fill-rule="evenodd" clip-rule="evenodd" d="M530.481 103.899l-.199-.104-6.042 11.09-10.762-5.631-.741 1.359 10.762 5.631-10.713 19.665.198.104c5.805 3.037 13.087.872 16.184-4.812l6.236-11.447c3.097-5.683.881-12.818-4.923-15.855"/>
        <path opacity=".08" fill-rule="evenodd" clip-rule="evenodd" d="M583.852 54.343a1.653 1.653 0 01-2.255-.611 1.652 1.652 0 01.598-2.258 1.652 1.652 0 012.255.611 1.653 1.653 0 01-.598 2.258zm-6.191-3.554a1.653 1.653 0 01-2.255-.611 1.653 1.653 0 01.598-2.258 1.652 1.652 0 012.255.61 1.653 1.653 0 01-.598 2.259zm5.956 10.314a1.652 1.652 0 01-2.255-.61 1.653 1.653 0 01.598-2.259 1.653 1.653 0 012.255.611 1.653 1.653 0 01-.598 2.258zm-23.838-34.122a1.651 1.651 0 01-2.254-.61 1.65 1.65 0 01.598-2.259 1.653 1.653 0 012.257.61 1.653 1.653 0 01-.601 2.26zm5.954 10.315a1.651 1.651 0 01-2.254-.611 1.653 1.653 0 01.598-2.258c.79-.456 1.8-.183 2.257.61a1.652 1.652 0 01-.601 2.259zm5.956 10.315a1.651 1.651 0 01-2.254-.611 1.652 1.652 0 01.598-2.258c.79-.456 1.8-.183 2.257.61a1.653 1.653 0 01-.601 2.259zm5.956 10.315a1.653 1.653 0 01-2.255-.61 1.652 1.652 0 01.599-2.259 1.653 1.653 0 012.257.61 1.653 1.653 0 01-.601 2.26zm5.954 10.315a1.651 1.651 0 01-2.254-.611 1.652 1.652 0 01.598-2.258c.79-.456 1.8-.183 2.257.61a1.652 1.652 0 01-.601 2.259zm-24.052-34.5a1.65 1.65 0 01-2.255-.611 1.65 1.65 0 01.598-2.258 1.653 1.653 0 012.255.611 1.652 1.652 0 01-.598 2.258zm5.955 10.315a1.65 1.65 0 01-2.254-.612 1.65 1.65 0 01.598-2.258 1.652 1.652 0 012.254.611c.458.793.19 1.804-.598 2.259zm5.956 10.314a1.65 1.65 0 01-2.255-.61 1.65 1.65 0 01.599-2.259 1.651 1.651 0 012.254.611 1.652 1.652 0 01-.598 2.258zm5.954 10.316a1.65 1.65 0 01-2.254-.61 1.65 1.65 0 01.598-2.259 1.653 1.653 0 012.255.611 1.652 1.652 0 01-.599 2.258zm-23.838-34.123a1.651 1.651 0 01-2.254-.61 1.652 1.652 0 01.598-2.259 1.651 1.651 0 012.254.611 1.652 1.652 0 01-.598 2.258zm5.956 10.316a1.653 1.653 0 01-2.255-.611 1.652 1.652 0 01.599-2.258 1.651 1.651 0 012.254.61 1.652 1.652 0 01-.598 2.259zm5.955 10.314a1.653 1.653 0 01-2.255-.611 1.652 1.652 0 01.599-2.258 1.651 1.651 0 012.254.611 1.652 1.652 0 01-.598 2.258zm5.956 10.314a1.653 1.653 0 01-2.255-.61 1.653 1.653 0 01.598-2.258 1.652 1.652 0 012.255.61 1.653 1.653 0 01-.598 2.258zm5.955 10.316a1.652 1.652 0 01-2.255-.611 1.653 1.653 0 01.598-2.258 1.652 1.652 0 012.255.61 1.652 1.652 0 01-.598 2.259zM553.34 37.324a1.652 1.652 0 01-2.255-.61 1.653 1.653 0 01.598-2.258 1.652 1.652 0 012.255.61 1.652 1.652 0 01-.598 2.258zm5.956 10.315a1.652 1.652 0 01-2.255-.611 1.653 1.653 0 01.598-2.258 1.653 1.653 0 012.255.61 1.653 1.653 0 01-.598 2.259zm5.955 10.315a1.652 1.652 0 01-2.254-.611 1.65 1.65 0 01.598-2.258 1.651 1.651 0 012.254.61 1.652 1.652 0 01-.598 2.259zm5.955 10.314a1.652 1.652 0 01-2.255-.61 1.653 1.653 0 01.598-2.259 1.653 1.653 0 012.255.611 1.653 1.653 0 01-.598 2.258zm-23.835-34.123c-.79.456-1.8.183-2.258-.61a1.653 1.653 0 01.601-2.259 1.652 1.652 0 012.255.611 1.653 1.653 0 01-.598 2.258zm5.955 10.315a1.652 1.652 0 01-2.257-.609 1.653 1.653 0 01.601-2.26 1.652 1.652 0 012.254.611 1.65 1.65 0 01-.598 2.258zm5.956 10.315c-.79.456-1.8.183-2.257-.61a1.653 1.653 0 01.601-2.259 1.652 1.652 0 012.254.61 1.652 1.652 0 01-.598 2.26zm5.954 10.314a1.653 1.653 0 01-2.257-.61 1.653 1.653 0 01.601-2.258 1.653 1.653 0 012.255.61 1.652 1.652 0 01-.599 2.258zm5.956 10.316a1.653 1.653 0 01-2.257-.61 1.653 1.653 0 01.601-2.26 1.652 1.652 0 012.254.612 1.652 1.652 0 01-.598 2.258zm-12.145-13.87a1.653 1.653 0 01-2.255-.61 1.652 1.652 0 01.599-2.258 1.651 1.651 0 012.254.61 1.653 1.653 0 01-.598 2.259zm5.956 10.315a1.653 1.653 0 01-2.255-.61 1.653 1.653 0 01.598-2.259 1.652 1.652 0 012.255.611 1.653 1.653 0 01-.598 2.258zm-5.973-3.177a1.651 1.651 0 01-2.254-.61 1.652 1.652 0 01.598-2.259 1.653 1.653 0 012.255.611 1.652 1.652 0 01-.599 2.258zm31.604-12.753a1.646 1.646 0 01-3.068.991 1.653 1.653 0 01.598-2.258 1.64 1.64 0 01.724-.216l-12.019-10.204a1.653 1.653 0 01-1.381-1.17l-3.404-2.89a1.61 1.61 0 01-.378.301 1.651 1.651 0 01-2.254-.611 1.657 1.657 0 01.112-1.83l-.762-.647-2.607-7.604c-.123.148-.27.277-.444.377a1.653 1.653 0 01-2.255-.61 1.652 1.652 0 01.591-2.254c-2.039-1.844-3.594-4.814-4.63-7.305a1.655 1.655 0 01-1.916-.757 1.652 1.652 0 01.776-2.345c-.259-.803-.39-1.3-.39-1.3l-2.736.856c.353 1.816.417 6.243-1.367 7.791-.555.48-1.553.435-2.367.287.038.48-.189.96-.631 1.216a1.27 1.27 0 01-1.271-.006c-.457.879-1.198 1.846-2.308 2.072-1.788.362-5.494-2.179-6.646-3.012l-2.336 2.147s.375.373.955 1.012c.091-.086.192-.164.305-.229a1.651 1.651 0 012.254.611 1.652 1.652 0 01-.447 2.159c1.638 2.14 3.425 4.964 3.995 7.646a1.653 1.653 0 012.408.51 1.652 1.652 0 01-.599 2.258c-.242.14-.508.212-.77.219l5.34 6.132.168.921a1.656 1.656 0 011.816.785 1.653 1.653 0 01-.598 2.258c-.2.115-.412.184-.626.209l.76 4.168a1.658 1.658 0 01.407 2.228l2.827 15.504c.134-.31.365-.583.682-.766a1.653 1.653 0 012.255.61 1.652 1.652 0 01-.599 2.259 1.648 1.648 0 01-2.007-.284l.796 4.373a1.65 1.65 0 011.736.703c1.012-.177 2.493-.498 4.401-1.078a1.661 1.661 0 01-.993-.77 1.653 1.653 0 01.598-2.257 1.653 1.653 0 012.255.61c.35.608.274 1.343-.135 1.857 3.23-1.107 7.377-2.866 12.278-5.672l.001.002.142-.083.144-.082-.001-.002c4.941-2.877 8.57-5.623 11.151-7.883a1.653 1.653 0 01-1.612-.82 1.653 1.653 0 01.598-2.258 1.653 1.653 0 012.255.611c.212.369.265.785.187 1.168 1.452-1.374 2.46-2.498 3.084-3.258a1.66 1.66 0 01.179-1.656l-3.221-2.734z"/>
        <path opacity=".05" fill-rule="evenodd" clip-rule="evenodd" d="M549.499 25.467a1.317 1.317 0 01-.054-1.215c-2.375.366-5.636-2.402-5.636-2.402l-3.344 2.867s4.979 3.793 7.164 3.35c1.136-.23 1.892-1.22 2.36-2.119a1.298 1.298 0 01-.49-.48M551.185 16.83s.928 4.671-.628 6.49a1.32 1.32 0 011.107 1.189c.812.16 1.804.218 2.348-.259 1.932-1.696 1.588-6.95 1.136-8.315l-3.963.896z"/>
        <path opacity=".07" fill-rule="evenodd" clip-rule="evenodd" d="M318.957 16.024l25.343-3.036a.417.417 0 01.318.096c.09.074.145.184.158.303l1.46 13.233a.449.449 0 01-.379.501l-25.343 3.036a.418.418 0 01-.316-.096.458.458 0 01-.161-.303l-1.458-13.233a.448.448 0 01.378-.501zm31.084 12.4l-.016-.154-1.815-1.298 1.323-1.705-1.506-1.222 1.231-1.586-1.504-1.222 1.292-1.665-1.524-1.237 1.231-1.586-1.583-1.285 1.265-1.629-.008-.064-1.796-1.46 1.201-1.55-33.059 3.96.002.021 1.796 1.284-1.323 1.705 1.505 1.222-1.231 1.586 1.505 1.222-1.293 1.665 1.525 1.237-1.218 1.57.003.03 1.566 1.27-1.249 1.61.011.1 1.779 1.444-1.333 1.717 33.223-3.98z"/>
        <path opacity=".07" fill-rule="evenodd" clip-rule="evenodd" d="M332.309 16.711c2.666-.046 4.865 2.104 4.912 4.804.047 2.7-2.076 4.926-4.742 4.973-2.664.046-4.863-2.104-4.91-4.804-.047-2.7 2.076-4.927 4.74-4.973zm13.202 9.458l-1.37-12.061-24.838 2.884 1.369 12.061 24.839-2.884z"/>
        <path opacity=".05" fill-rule="evenodd" clip-rule="evenodd" d="M438.282 117.098a1.664 1.664 0 11-.52-3.285 1.663 1.663 0 11.52 3.285zm-3.858-2.799a1.665 1.665 0 01-1.907-1.382 1.665 1.665 0 011.387-1.903 1.664 1.664 0 11.52 3.285zm1.054 6.655a1.665 1.665 0 01-1.907-1.382 1.665 1.665 0 013.29-.521 1.664 1.664 0 01-1.383 1.903zm-3.859-2.799a1.666 1.666 0 01-1.906-1.382 1.664 1.664 0 111.906 1.382zm-11.91 1.452a.452.452 0 01-.375.515l-2.234.354c.129.093-1.993-1.545-1.993-1.545l1.418-2.085 2.235-.353a.452.452 0 01.515.374l.434 2.74zm-2.574 3.545a.453.453 0 01-.375.515l-2.743.434a.452.452 0 01-.516-.374l-.353-2.231c-.094.128 1.547-1.991 1.547-1.991l2.086 1.415.354 2.232zm-6.666-1.621a.451.451 0 01-.515-.373l-.434-2.741a.451.451 0 01.374-.515l2.234-.354a429.736 429.736 0 001.993 1.545l-1.418 2.084-2.234.354zm1.626-6.658a.451.451 0 01.374-.515l2.744-.435a.452.452 0 01.515.374l.353 2.232c.094-.129-1.546 1.991-1.546 1.991l-2.087-1.416-.353-2.231zm30.252-4.372c-4.123-4.602-6.432-5.254-11.07-4.519l-.63.1.452 2.854-14.977 2.372-.452-2.854-.742.117c-4.636.735-6.631 2.068-9.131 7.719-2.499 5.651-4.474 17.831-.16 19.352 5.044 1.777 12.548-7.582 12.548-7.582l16.017-2.537s10.03 6.582 14.276 3.333c3.632-2.779-2.009-13.753-6.131-18.355zM262.753 4.812c3.046-2.467 11.629-5.885 13.33-6.38 1.701-.494 3.575 1.3 1.543 2.945l-18.216 14.75-1.143.926-12.186 9.869c-1.152.933-2.897.706-3.876-.504-.98-1.21-.839-2.963.313-3.896l13.329-10.794c.683-.552 1.572-.695 2.388-.47.422-1.453 1.547-4.04 4.518-6.446zm19.281 7.351c-1.064.957-2.708 2.437-4.962 4.262-1.687 1.365-4.041 1.365-5.77.155l-3.012 2.44c.154.933-.171 1.912-.942 2.536l-12.751 10.326c-1.152.933-2.876.732-3.83-.447-.955-1.179-.793-2.906.359-3.84l12.751-10.325c.771-.624 1.797-.738 2.678-.394l3.012-2.44c-.824-1.942-.335-4.245 1.351-5.61a265.815 265.815 0 014.789-3.764c.702-.542 1.248-.963 1.542-1.2.825-.67 1.381.278.799.857s-3.429 3.422-4.312 4.406c-.767.854-.017 2.184 1.231 1.261.888-.655 2.15-1.54 3.195-2.273.735-.515 1.362-.955 1.675-1.186.656-.485 1.518.383.841 1.04a95.21 95.21 0 01-.683.649c-1.02.964-2.676 2.53-3.645 3.608-.82.912.273 1.89 1.015 1.383l.699-.48c1.483-1.017 3.834-2.629 4.466-3.004.632-.375 1.397.428.635 1.045-.246.2-.622.537-1.131.995z"/>
        <path opacity=".07" fill-rule="evenodd" clip-rule="evenodd" d="M488.493-2.468l12.225-7.64c1.422-.887 3.333-.415 4.249 1.05l4.696 7.516c.916 1.465.502 3.39-.919 4.279l-12.189 7.616c.005 4.553-2.205 8.953-6.264 11.49-4.035 2.52-8.923 2.593-12.999.63l-12.225 7.639c-1.422.888-3.334.416-4.249-1.05l-4.697-7.515c-.915-1.466-.502-3.39.92-4.279l12.188-7.616c-.005-4.553 2.206-8.953 6.265-11.49 4.034-2.52 8.923-2.594 12.999-.63zm.457 22.163c-5.193 3.246-12.116 1.536-15.461-3.818-3.346-5.353-1.847-12.324 3.346-15.57 5.193-3.244 12.115-1.535 15.461 3.819 3.345 5.354 1.847 12.324-3.346 15.57z"/>
        <path opacity=".07" fill-rule="evenodd" clip-rule="evenodd" d="M476.176 15.02a.77.77 0 01-1.056-.262.77.77 0 01.229-1.064.77.77 0 011.056.261.77.77 0 01-.229 1.064M487.931 18.08a.77.77 0 01-1.056-.261.77.77 0 01.228-1.064.77.77 0 011.057.26.77.77 0 01-.229 1.065M478.717 3.275a.77.77 0 01-1.057-.261.77.77 0 01.229-1.064.769.769 0 011.056.261.77.77 0 01-.228 1.064M490.537 6.01a.77.77 0 01-1.056-.262.77.77 0 01.229-1.064.77.77 0 011.056.262.77.77 0 01-.229 1.063M484.483 3.586a.828.828 0 00-1.031.6l-1.184 4.78-6.144-2.952a.83.83 0 00-1.124.404.888.888 0 00.429 1.15l6.97 3.348a.83.83 0 001.014-.06l.001-.001a.809.809 0 00.219-.29h.001a.832.832 0 00.062-.237l1.407-5.68a.891.891 0 00-.62-1.062"/>
        <path opacity=".05" fill-rule="evenodd" clip-rule="evenodd" d="M158.913 106.411a2.346 2.346 0 01.873 3.199 2.345 2.345 0 01-3.207.843 2.344 2.344 0 01-.872-3.198 2.345 2.345 0 013.206-.844m2.055-3.807c-2.885-1.666-12.613.079-15.05 4.301l-9.757 16.898c-.563.976-.218 2.24.766 2.809 0 0 3.017 2.135 7.095 4.49 4.079 2.355 8.39 4.45 8.39 4.45a2.065 2.065 0 002.815-.741l4.852-8.404 4.904-8.494c2.381-4.124-1.13-13.644-4.015-15.309M84.698-7.206c1.444.526 2.193 2.112 1.672 3.543-.52 1.431-2.114 2.165-3.558 1.64-1.444-.526-2.193-2.112-1.672-3.543.521-1.432 2.114-2.166 3.558-1.64m1.611-4.855c-3.7-1.346-14.662 2.68-16.633 8.095l-7.887 21.67c-.456 1.251.205 2.651 1.468 3.11 0 0 3.949 1.867 9.179 3.77 5.23 1.904 10.677 3.458 10.677 3.458 1.263.46 2.669-.188 3.124-1.44l3.922-10.777 3.965-10.893C96.05-.356 90.01-10.714 86.31-12.06M510.894 44.717a2.328 2.328 0 012.859 1.633 2.328 2.328 0 01-1.659 2.845 2.328 2.328 0 01-2.859-1.634 2.328 2.328 0 011.659-2.844m-1.231-4.117c-3.196.856-8.803 8.914-7.55 13.592l5.017 18.722c.289 1.081 1.419 1.727 2.51 1.434 0 0 3.619-.618 8.138-1.83 4.518-1.21 9.018-2.767 9.018-2.767a2.05 2.05 0 001.456-2.497l-2.494-9.31-2.522-9.412c-1.224-4.569-10.377-8.789-13.573-7.932"/>
        <path opacity=".08" fill-rule="evenodd" clip-rule="evenodd" d="M50.7 52.478a1.443 1.443 0 01-1.19 1.65l-33.771 5.348a1.442 1.442 0 01-1.641-1.201L10.736 37.05a1.442 1.442 0 011.19-1.65l33.77-5.348a1.443 1.443 0 011.642 1.201l3.361 21.224zm-4.144-24.632l-36.13 5.723c-1.334.211-2.252 1.484-2.039 2.828l3.677 23.217c.213 1.344 1.48 2.27 2.814 2.06l15.503-2.456.446 2.813-8.46 1.34c-1.334.21-2.252 1.483-2.04 2.827l26.896-4.26c-.213-1.343-1.48-2.27-2.814-2.059l-8.46 1.34-.445-2.813 15.504-2.455c1.334-.212 2.252-1.484 2.039-2.828L49.37 29.906c-.213-1.344-1.48-2.271-2.814-2.06z"/>
    </g>
    <defs>
        <clipPath id="clip0">
            <path fill="#fff" d="M0 0h600v150H0z"/>
        </clipPath>
    </defs>
</svg>
