<svg width="235" height="194" xmlns="http://www.w3.org/2000/svg"><g fill="#333" fill-rule="evenodd"><path d="M69.865 91.4l10.467 20.638h77.923l9.57-20.637-4.917-6.88-22.098 10.32L81.495 75.35z"/><path d="M73.354 98.28l6.713 13.758h78.188l7.535-16.246-24.979 7.074-45.36-9.173zM108.281 10l-.036 26.37-17.251 25.64 49.427 16.433 14.345-6.687-24.423-35.387V10.037zM55.13 154.273h14.994c-.198-2.676-.882-4.657-2.059-5.946-1.274-1.386-3.086-2.08-5.438-2.08-2.157 0-3.92.694-5.292 2.08-1.373 1.39-2.108 3.37-2.205 5.946m17.64 11.593h7.35c-1.08 4.161-3.138 7.334-6.175 9.512-3.038 2.28-6.86 3.418-11.465 3.418-5.585 0-9.947-1.832-13.082-5.499-3.137-3.567-4.704-8.67-4.704-15.309 0-6.34 1.518-11.296 4.557-14.863 3.135-3.665 7.496-5.499 13.082-5.499 5.88 0 10.436 1.784 13.67 5.35 3.135 3.667 4.704 8.77 4.704 15.31v1.635c0 .496-.05.842-.147 1.04H55.13c.097 3.072.832 5.35 2.205 6.837 1.273 1.586 3.183 2.378 5.733 2.378 1.665 0 3.087-.346 4.263-1.04a2.03 2.03 0 00.808-.52l.809-.818c.096-.297.464-.692 1.102-1.19.636-.494 1.543-.742 2.72-.742m32.19-7.729c-1.373.694-3.284 1.337-5.733 1.932l-3.38.743c-1.765.497-3.039 1.14-3.822 1.933-.687 1.09-1.03 2.18-1.03 3.27 0 1.486.442 2.674 1.324 3.566.881.795 2.154 1.19 3.821 1.19 2.743 0 4.9-.793 6.468-2.379 1.566-1.584 2.352-3.764 2.352-6.54v-3.715zm2.352 18.281a17.955 17.955 0 01-6.541 2.007c-2.304.246-4.337.371-6.1.371-3.528 0-6.615-.966-9.26-2.898-2.647-1.932-3.97-5.128-3.97-9.586 0-4.162 1.2-7.135 3.601-8.918 2.4-1.784 5.462-2.973 9.188-3.568.489 0 1.077-.074 1.763-.222.685-.15 1.47-.272 2.352-.372 4.312-.594 6.468-1.88 6.468-3.865 0-1.485-.76-2.451-2.279-2.898-1.52-.445-2.916-.669-4.189-.669-1.373 0-2.597.2-3.675.595-1.079.397-1.862 1.14-2.351 2.23H82.47c.391-3.07 1.764-5.598 4.116-7.58 2.646-2.28 6.417-3.42 11.318-3.42 5.487 0 9.603.944 12.348 2.825 2.841 1.983 4.262 4.756 4.262 8.323v13.525c0 3.965-.712 7.06-2.13 9.29-1.423 2.229-3.113 3.841-5.072 4.83zm9.113-49.494h5.292c1.371 0 2.548.472 3.528 1.412.978.943 1.47 2.107 1.47 3.493v46.224h-10.29v-51.129zm34.691 31.213c-1.374.694-3.285 1.337-5.733 1.932l-3.38.743c-1.765.497-3.04 1.14-3.822 1.933-.687 1.09-1.03 2.18-1.03 3.27 0 1.486.441 2.674 1.324 3.566.882.795 2.154 1.19 3.821 1.19 2.743 0 4.9-.793 6.467-2.379 1.567-1.584 2.353-3.764 2.353-6.54v-3.715zm2.352 18.281a17.955 17.955 0 01-6.541 2.007c-2.305.246-4.337.371-6.1.371-3.529 0-6.615-.966-9.261-2.898-2.646-1.932-3.969-5.128-3.969-9.586 0-4.162 1.2-7.135 3.601-8.918 2.4-1.784 5.462-2.973 9.187-3.568.489 0 1.077-.074 1.764-.222.685-.15 1.47-.272 2.352-.372 4.31-.594 6.468-1.88 6.468-3.865 0-1.485-.761-2.451-2.279-2.898-1.52-.445-2.917-.669-4.189-.669-1.374 0-2.598.2-3.675.595-1.079.397-1.863 1.14-2.351 2.23h-9.85c.391-3.07 1.765-5.598 4.116-7.58 2.647-2.28 6.418-3.42 11.319-3.42 5.487 0 9.602.944 12.347 2.825 2.841 1.983 4.263 4.756 4.263 8.323v13.525c0 3.965-.712 7.06-2.131 9.29-1.422 2.229-3.113 3.841-5.071 4.83zm35.424-18.43c0-3.566-.735-6.34-2.205-8.323-1.47-2.08-3.48-3.121-6.026-3.121-2.745 0-4.851.991-6.32 2.972-1.47 2.081-2.206 4.906-2.206 8.472 0 4.162.685 7.186 2.058 9.067 1.47 2.08 3.527 3.12 6.174 3.12 2.742 0 4.85-1.04 6.32-3.12 1.47-2.081 2.205-5.102 2.205-9.067m-16.757-26.159v11.891c1.077-1.881 2.646-3.419 4.704-4.608 1.764-.99 3.918-1.486 6.467-1.486 4.605 0 8.379 1.932 11.319 5.797 2.94 3.864 4.41 8.868 4.41 15.011 0 6.145-1.47 11.147-4.41 15.012-1.47 1.883-3.455 3.247-5.954 4.087-2.498.84-4.974 1.264-7.422 1.264-4.704 0-9.066-1.238-13.083-3.716-4.019-2.476-6.026-7.232-6.026-14.269v-34.036h4.998c1.37 0 2.546.496 3.527 1.486.979.992 1.47 2.18 1.47 3.567m27.781 33.145h9.996c.096 1.983.831 3.47 2.205 4.459 1.47.992 3.428 1.486 5.88 1.486 1.763 0 3.28-.346 4.556-1.04 1.176-.692 1.764-1.635 1.764-2.824 0-1.784-2.058-3.121-6.174-4.013-1.764-.297-3.087-.595-3.969-.892-5.195-1.287-8.672-2.824-10.436-4.607-1.961-1.784-2.94-4.162-2.94-7.135 0-3.764 1.42-6.885 4.263-9.364 2.94-2.278 6.762-3.418 11.465-3.418 5.094 0 9.162 1.14 12.2 3.418 2.841 2.479 4.36 5.7 4.557 9.662h-6.32c-1.863 0-3.284-.841-4.263-2.527a219.92 219.92 0 01-1.176-1.19c-1.176-.891-2.793-1.337-4.851-1.337-1.961 0-3.431.297-4.41.892-.881.595-1.322 1.487-1.322 2.675 0 1.587 2.546 2.924 7.643 4.013.588.2 1.103.349 1.543.446.442.1.857.149 1.25.149 4.997 1.288 8.475 2.775 10.437 4.459 1.86 1.783 2.792 4.161 2.792 7.134 0 4.361-1.568 7.729-4.703 10.107-2.94 2.18-7.35 3.27-13.23 3.27-5.585 0-9.752-1.138-12.494-3.419-2.843-2.278-4.263-5.597-4.263-9.958v-.446zM37.481 133.812c-3.821-4.162-9.605-6.243-17.344-6.243l-17.294-.161 10.205 9.029 7.089.05c4.31 0 7.446 1.338 9.407 4.013 2.058 2.676 3.087 6.888 3.087 12.634 0 5.945-1.08 10.107-3.234 12.484-2.256 2.578-5.783 3.865-10.584 3.865h-8.378l.062-27.887-10.205-9.029v46.131h17.052c4.8 0 8.378-.346 10.73-1.04 2.448-.693 4.752-1.882 6.908-3.568 2.548-1.98 4.605-4.853 6.174-8.62 1.372-3.665 2.058-7.778 2.058-12.336 0-8.52-1.911-14.96-5.733-19.322"/></g></svg>